<svg width="816" height="157" xmlns="http://www.w3.org/2000/svg" xmlns:xlink="http://www.w3.org/1999/xlink" xml:space="preserve" overflow="hidden"><defs><clipPath id="clip0"><rect x="0" y="902" width="816" height="157"/></clipPath><linearGradient x1="0" y1="19.6506" x2="630.083" y2="19.6506" gradientUnits="userSpaceOnUse" spreadMethod="pad" id="fill1"><stop offset="0" stop-color="#EF3D39"/><stop offset="0.03" stop-color="#EF3D39"/><stop offset="0.78" stop-color="#FAA71A"/><stop offset="1" stop-color="#FAA71A"/></linearGradient><linearGradient x1="504.491" y1="44.2328" x2="636.115" y2="44.2328" gradientUnits="userSpaceOnUse" spreadMethod="pad" id="fill2"><stop offset="0" stop-color="#EF3D39"/><stop offset="0.03" stop-color="#EF3D39"/><stop offset="0.78" stop-color="#FAA71A"/><stop offset="1" stop-color="#FAA71A"/></linearGradient><linearGradient x1="599.482" y1="46.3951" x2="753.082" y2="46.3951" gradientUnits="userSpaceOnUse" spreadMethod="pad" id="fill3"><stop offset="0" stop-color="#EF3D39"/><stop offset="0.03" stop-color="#EF3D39"/><stop offset="0.78" stop-color="#FAA71A"/><stop offset="1" stop-color="#FAA71A"/></linearGradient><linearGradient x1="541.731" y1="50.7324" x2="672.052" y2="50.7324" gradientUnits="userSpaceOnUse" spreadMethod="pad" id="fill4"><stop offset="0" stop-color="#67CBE3"/><stop offset="1" stop-color="#3E5BA9"/></linearGradient><linearGradient x1="699.669" y1="94.0547" x2="753.082" y2="94.0547" gradientUnits="userSpaceOnUse" spreadMethod="pad" id="fill5"><stop offset="0" stop-color="#67CBE3"/><stop offset="1" stop-color="#3E5BA9"/></linearGradient><linearGradient x1="0" y1="66.8423" x2="584.067" y2="66.8423" gradientUnits="userSpaceOnUse" spreadMethod="pad" id="fill6"><stop offset="0" stop-color="#67CBE3"/><stop offset="1" stop-color="#3E5BA9"/></linearGradient><linearGradient x1="122.999" y1="1036.31" x2="753.082" y2="1036.31" gradientUnits="userSpaceOnUse" spreadMethod="pad" id="fill7"><stop offset="0" stop-color="#EF3D39"/><stop offset="0.03" stop-color="#EF3D39"/><stop offset="0.78" stop-color="#FAA71A"/><stop offset="1" stop-color="#FAA71A"/></linearGradient><linearGradient x1="116.968" y1="1011.73" x2="248.591" y2="1011.73" gradientUnits="userSpaceOnUse" spreadMethod="pad" id="fill8"><stop offset="0" stop-color="#EF3D39"/><stop offset="0.03" stop-color="#EF3D39"/><stop offset="0.78" stop-color="#FAA71A"/><stop offset="1" stop-color="#FAA71A"/></linearGradient><linearGradient x1="0" y1="1009.56" x2="153.601" y2="1009.56" gradientUnits="userSpaceOnUse" spreadMethod="pad" id="fill9"><stop offset="0" stop-color="#EF3D39"/><stop offset="0.03" stop-color="#EF3D39"/><stop offset="0.78" stop-color="#FAA71A"/><stop offset="1" stop-color="#FAA71A"/></linearGradient><linearGradient x1="81.0302" y1="1005.21" x2="211.364" y2="1005.21" gradientUnits="userSpaceOnUse" spreadMethod="pad" id="fill10"><stop offset="0" stop-color="#67CBE3"/><stop offset="1" stop-color="#3E5BA9"/></linearGradient><linearGradient x1="0" y1="961.904" x2="53.4258" y2="961.904" gradientUnits="userSpaceOnUse" spreadMethod="pad" id="fill11"><stop offset="0" stop-color="#67CBE3"/><stop offset="1" stop-color="#3E5BA9"/></linearGradient><linearGradient x1="169.015" y1="989.104" x2="753.082" y2="989.104" gradientUnits="userSpaceOnUse" spreadMethod="pad" id="fill12"><stop offset="0" stop-color="#67CBE3"/><stop offset="1" stop-color="#3E5BA9"/></linearGradient></defs><g clip-path="url(#clip0)" transform="matrix(1 0 0 1 0 -902)"><path d="M0 0 753.082 0 753.082 1055.96-1.5436e-05 1055.96Z" fill="#FDFEFF" transform="matrix(1.08264 0 0 1 0.342229 3.04089)"/><path d="M644.916 45.434 644.675 45.434 644.789 45.3202 644.916 45.434Z" fill="#ED1C24" transform="matrix(1.08264 0 0 1 0.342229 3.04089)"/><path d="M630.083 39.3011 0 39.3011 0 0 590.794 0 630.083 39.3011Z" fill="url(#fill1)" transform="matrix(1.08264 0 0 1 0.342229 3.04089)"/><path d="M636.115 45.3202 592.957 88.4655 504.491 0 590.794 0 591.857 1.06219 630.083 39.3011 636.115 45.3202Z" fill="url(#fill2)" transform="matrix(1.08264 0 0 1 0.342229 3.04089)"/><path d="M753.082 0 753.082 31.9543 692.259 92.7902 644.903 45.434 644.789 45.3202 599.482 0 753.082 0Z" fill="url(#fill3)" transform="matrix(1.08264 0 0 1 0.342229 3.04089)"/><path d="M644.903 45.434 644.789 45.3076 599.482 0 541.731 0 542.793 1.06219 581.032 39.3011 611.583 69.8518 643.196 101.477 672.065 72.5958 644.916 45.4467Z" fill="url(#fill4)" transform="matrix(1.08264 0 0 1 0.342229 3.04089)"/><path d="M753.082 40.6415 753.082 147.48 699.669 94.0547 753.082 40.6415Z" fill="url(#fill5)" transform="matrix(1.08264 0 0 1 0.342229 3.04089)"/><path d="M584.067 88.2632 0 88.2632 0 45.434 541.251 45.434 584.067 88.2632Z" fill="url(#fill6)" transform="matrix(1.08264 0 0 1 0.342229 3.04089)"/><path d="M108.167 1010.51 108.407 1010.51 108.293 1010.64 108.167 1010.51Z" fill="#ED1C24" transform="matrix(1.08264 0 0 1 0.342229 3.04089)"/><path d="M122.999 1016.66 753.082 1016.66 753.082 1055.96 162.288 1055.96 122.999 1016.66Z" fill="url(#fill7)" transform="matrix(1.08264 0 0 1 0.342229 3.04089)"/><path d="M116.968 1010.64 160.126 967.494 248.591 1055.96 162.288 1055.96 161.226 1054.9 122.999 1016.66 116.968 1010.64Z" fill="url(#fill8)" transform="matrix(1.08264 0 0 1 0.342229 3.04089)"/><path d="M0 1055.96 0 1024 60.8232 963.169 108.179 1010.51 108.293 1010.64 153.601 1055.96 0 1055.96Z" fill="url(#fill9)" transform="matrix(1.08264 0 0 1 0.342229 3.04089)"/><path d="M108.179 1010.51 108.293 1010.64 153.613 1055.96 211.364 1055.96 210.302 1054.9 172.063 1016.66 141.512 986.107 109.899 954.482 81.0302 983.363 108.179 1010.51Z" fill="url(#fill10)" transform="matrix(1.08264 0 0 1 0.342229 3.04089)"/><path d="M0 1015.32 0 908.479 53.4258 961.904 0 1015.32Z" fill="url(#fill11)" transform="matrix(1.08264 0 0 1 0.342229 3.04089)"/><path d="M169.015 967.696 753.082 967.696 753.082 1010.51 211.832 1010.51 169.015 967.696Z" fill="url(#fill12)" transform="matrix(1.08264 0 0 1 0.342229 3.04089)"/><path d="M326.321 996.122 326.321 984.615 316.357 978.874 306.405 984.615 306.405 996.122 316.357 1001.88 326.321 996.122Z" fill="#FFFFFF" transform="matrix(1.08264 0 0 1 0.342229 3.04089)"/><path d="M228.877 995.477 228.877 983.983 218.913 978.229 208.961 983.983 208.961 995.477 218.913 1001.23 228.877 995.477Z" fill="#FFFFFF" transform="matrix(1.08264 0 0 1 0.342229 3.04089)"/><path d="M320.289 992.101 318.468 991.317C318.304 991.254 318.114 991.292 318 991.431L317.204 992.417C315.927 991.823 314.902 990.786 314.321 989.547L315.307 988.737C315.446 988.624 315.497 988.447 315.433 988.282L314.649 986.461C314.574 986.284 314.384 986.183 314.194 986.234L312.512 986.626C312.335 986.664 312.209 986.828 312.209 987.005 312.209 991.178 315.585 994.554 319.745 994.554 319.922 994.554 320.087 994.428 320.125 994.251L320.517 992.556C320.555 992.379 320.466 992.19 320.289 992.114Z" fill="#231F20" transform="matrix(1.08264 0 0 1 0.342229 3.04089)"/><path d="M444.111 994.858 444.111 983.351 434.146 977.61 424.194 983.351 424.194 994.858 434.146 1000.61 444.111 994.858Z" fill="#FFFFFF" transform="matrix(1.08264 0 0 1 0.342229 3.04089)"/><path d="M434.171 984.046 434.171 984.046C431.389 984.046 429.101 986.322 429.101 989.091 429.101 989.762 429.24 990.432 429.505 991.051 430.024 992.265 430.997 993.239 432.211 993.77 432.844 994.036 433.501 994.175 434.184 994.175 435.588 994.175 436.84 993.581 437.75 992.683 438.66 991.747 439.23 990.482 439.23 989.091 439.23 986.322 436.979 984.059 434.197 984.046ZM433.198 984.742C432.679 985.222 432.275 985.791 431.959 986.411L430.58 986.411C431.225 985.589 432.123 984.982 433.198 984.742ZM430.214 987.018 431.706 987.018C431.491 987.587 431.377 988.181 431.339 988.801L429.695 988.801C429.746 988.156 429.91 987.561 430.214 987.018ZM430.214 991.203C429.923 990.659 429.746 990.053 429.695 989.382L431.339 989.382C431.377 990.015 431.503 990.622 431.706 991.203L430.214 991.203ZM430.605 991.798 431.959 991.798C432.275 992.43 432.679 992.974 433.185 993.467 432.136 993.227 431.238 992.619 430.605 991.798ZM433.868 993.277C433.362 992.86 432.958 992.354 432.629 991.798L433.868 991.798 433.868 993.277ZM433.868 991.203 432.351 991.203C432.123 990.634 431.971 990.027 431.946 989.382L433.868 989.382 433.868 991.203ZM433.868 988.801 431.946 988.801C431.984 988.168 432.123 987.574 432.351 987.018L433.868 987.018 433.868 988.801ZM433.868 986.411 432.629 986.411C432.958 985.854 433.362 985.349 433.868 984.931L433.868 986.411ZM438.104 987.018C438.382 987.561 438.559 988.156 438.61 988.801L437.004 988.801C436.966 988.181 436.84 987.587 436.637 987.018L438.117 987.018ZM437.725 986.411 436.372 986.411C436.068 985.791 435.664 985.222 435.158 984.742 436.207 984.982 437.092 985.589 437.725 986.411ZM434.475 984.944C434.981 985.361 435.398 985.867 435.714 986.423L434.475 986.423 434.475 984.944ZM434.475 987.018 436.005 987.018C436.22 987.574 436.359 988.168 436.397 988.801L434.475 988.801 434.475 987.018ZM434.475 989.382 436.41 989.382C436.372 990.015 436.233 990.634 436.005 991.203L434.475 991.203 434.475 989.382ZM434.475 991.785 435.714 991.785C435.398 992.354 434.981 992.847 434.475 993.277L434.475 991.785ZM435.158 993.479C435.664 992.986 436.068 992.417 436.372 991.798L437.712 991.798C437.092 992.632 436.195 993.239 435.158 993.479ZM438.091 991.203 436.625 991.203C436.84 990.622 436.966 990.015 436.991 989.382L438.597 989.382C438.547 990.027 438.382 990.659 438.079 991.203Z" fill="#231F20" transform="matrix(1.08264 0 0 1 0.342229 3.04089)"/><path d="M569.26 995.136 569.26 983.629 559.295 977.888 549.331 983.629 549.331 995.136 559.295 1000.89 569.26 995.136Z" fill="#FFFFFF" transform="matrix(1.08264 0 0 1 0.342229 3.04089)"/><path d="M559.295 983.831C556.994 983.831 555.135 985.69 555.135 987.979 555.135 989.661 555.729 990.128 558.865 994.706 559.08 994.997 559.51 994.997 559.725 994.706 562.887 990.128 563.456 989.661 563.456 987.979 563.456 985.677 561.584 983.831 559.295 983.831ZM559.295 989.736C558.334 989.736 557.563 988.965 557.563 987.991 557.563 987.018 558.334 986.259 559.295 986.259 560.256 986.259 561.028 987.043 561.028 987.991 561.028 988.94 560.256 989.736 559.295 989.736Z" fill="#231F20" transform="matrix(1.08264 0 0 1 0.342229 3.04089)"/><text fill="#30BFF0" font-family="Lucida Handwriting,Lucida Handwriting_MSFontService,sans-serif" font-style="oblique" font-weight="400" font-size="13" transform="matrix(0.889858 0 0 1.26452 143.336 139)">Real Silk Trading Company</text></g></svg>