<svg width="33" height="17" viewBox="0 0 33 17" fill="none" xmlns="http://www.w3.org/2000/svg">
<rect y="0.371826" width="32.0461" height="16.3254" rx="4" fill="white"/>
<path d="M12.1059 14.5943C15.4525 14.5943 18.1655 11.8814 18.1655 8.53472C18.1655 5.18808 15.4525 2.4751 12.1059 2.4751C8.75925 2.4751 6.04626 5.18808 6.04626 8.53472C6.04626 11.8814 8.75925 14.5943 12.1059 14.5943Z" fill="#FF6041"/>
<path d="M19.7389 14.5943C23.0856 14.5943 25.7986 11.8814 25.7986 8.53472C25.7986 5.18808 23.0856 2.4751 19.7389 2.4751C16.3923 2.4751 13.6793 5.18808 13.6793 8.53472C13.6793 11.8814 16.3923 14.5943 19.7389 14.5943Z" fill="#FFD941"/>
<path fill-rule="evenodd" clip-rule="evenodd" d="M15.9322 3.84595C17.2977 4.95591 18.1705 6.64794 18.1705 8.54449C18.1705 10.441 17.2977 12.1331 15.9322 13.243C14.5668 12.1331 13.694 10.441 13.694 8.54449C13.694 6.64794 14.5668 4.95591 15.9322 3.84595Z" fill="#FFD941"/>
<mask id="mask0_7217_36383" style="mask-type:luminance" maskUnits="userSpaceOnUse" x="13" y="3" width="6" height="11">
<path d="M15.9322 3.84595C17.2977 4.95591 18.1705 6.64794 18.1705 8.54449C18.1705 10.441 17.2977 12.1331 15.9322 13.243C14.5668 12.1331 13.694 10.441 13.694 8.54449C13.694 6.64794 14.5668 4.95591 15.9322 3.84595Z" fill="white"/>
</mask>
<g mask="url(#mask0_7217_36383)">
<path fill-rule="evenodd" clip-rule="evenodd" d="M12.5709 5.03906H19.7959V5.82565H12.5709V5.03906Z" fill="#FF6041"/>
<path fill-rule="evenodd" clip-rule="evenodd" d="M12.5709 6.58301H19.7959V7.36959H12.5709V6.58301Z" fill="#FF6041"/>
<path fill-rule="evenodd" clip-rule="evenodd" d="M12.5709 8.15625H19.7959V8.94284H12.5709V8.15625Z" fill="#FF6041"/>
<path fill-rule="evenodd" clip-rule="evenodd" d="M12.5709 9.70044H19.7959V10.487H12.5709V9.70044Z" fill="#FF6041"/>
<path fill-rule="evenodd" clip-rule="evenodd" d="M12.5709 11.2444H19.7959V12.031H12.5709V11.2444Z" fill="#FF6041"/>
</g>
</svg>
